# xmcd
#
# Track frame offsets:
#	150
#	17727
#	37320
#	57449
#	77794
#	100991
#	118478
#	136838
#	154058
#	175300
#	193604
#	213114
#
# Disc length: 3161 seconds
#
# Revision: 2
# Processed by: cddbd v1.5.2PL0 Copyright (c) Steve Scherf et al.
# Submitted via: EZCDAudioConverter 7.1.7.1
#
DISCID=aa0c570c
DTITLE=郑源 - 擦肩而过
DYEAR=2008
DGENRE=
TTITLE0=郑源 - 擦肩而过
TTITLE1=郑源 - 当我孤独的时候还可以抱着你
TTITLE2=郑源 - 无情的温柔
TTITLE3=郑源 - 怎么会狠心伤害我
TTITLE4=郑源 - 过期的情书
TTITLE5=郑源/沈丹丹 - 幸福恋人
TTITLE6=郑源 - 不要在我寂寞的时候说爱我
TTITLE7=郑源 - 等
TTITLE8=郑源/T.R.Y - 爱情里没有谁对谁错
TTITLE9=郑源 - 不要在我寂寞的时候说爱我(粤)
TTITLE10=郑源 - 曾经爱过你
TTITLE11=郑源 - 歌中故事······
EXTD=
EXTT0=
EXTT1=
EXTT2=
EXTT3=
EXTT4=
EXTT5=
EXTT6=
EXTT7=
EXTT8=
EXTT9=
EXTT10=
EXTT11=
PLAYORDER=
